<svg data-v-423bf9ae="" xmlns="http://www.w3.org/2000/svg" viewBox="0 0 563.8517241613523 180" class="iconAbove"><!----><!----><!----><g data-v-423bf9ae="" id="eac6f129-da0a-4359-b95c-a61129803c6b" fill="black" transform="matrix(4.3604650437477295,0,0,4.3604650437477295,1.2645389429856664,94.62403544736847)"><path d="M9.07 11.98L9.07 11.98Q9.66 11.48 10.07 10.82Q10.49 10.16 10.49 9.41L10.49 9.41Q10.49 9.00 10.39 8.63Q10.29 8.26 10.12 7.93Q9.95 7.60 9.74 7.31Q9.53 7.03 9.31 6.78L9.31 6.78Q8.93 6.37 8.25 6.19Q7.56 6.01 6.76 6.01L6.76 6.01Q6.15 6.01 5.47 6.10Q4.79 6.20 4.13 6.37Q3.47 6.54 2.85 6.76Q2.23 6.99 1.72 7.24L1.72 7.24Q1.57 8.32 1.31 9.51Q1.05 10.70 0.77 11.88Q0.49 13.06 0.22 14.19Q-0.06 15.32-0.22 16.28L-0.22 16.28Q-0.25 16.44-0.27 16.57Q-0.29 16.70-0.29 16.84L-0.29 16.84Q-0.29 17.16-0.18 17.37Q-0.07 17.57 0.13 17.84L0.13 17.84L0.11 17.82Q0.43 18.30 0.83 18.59Q1.23 18.87 1.64 19.07L1.64 19.07Q1.89 19.25 2.10 19.33Q2.31 19.42 2.56 19.42L2.56 19.42Q2.90 19.42 3.40 19.25L3.40 19.25L3.39 19.25Q3.92 19.10 4.52 18.87Q5.12 18.65 5.72 18.37Q6.31 18.09 6.85 17.75Q7.39 17.42 7.78 17.04L7.78 17.04L7.77 17.04Q8.33 16.56 8.62 16.07Q8.90 15.58 8.90 14.91L8.90 14.91Q8.90 14.35 8.64 13.77Q8.37 13.19 7.94 12.82L7.94 12.82Q8.26 12.61 8.53 12.40Q8.81 12.19 9.07 11.98ZM4.56 11.05L4.56 11.05Q4.70 10.60 4.84 10.19Q4.97 9.77 5.11 9.39L5.11 9.39Q5.66 9.16 6.12 9.04Q6.58 8.93 6.92 8.93L6.92 8.93Q7.39 8.93 7.39 9.04L7.39 9.04Q7.39 9.23 7.19 9.51Q6.99 9.79 6.60 10.11Q6.22 10.43 5.67 10.76Q5.12 11.09 4.45 11.35L4.45 11.35Q4.49 11.21 4.56 11.05ZM4.79 14.15L4.79 14.15Q5.15 14.15 5.35 14.22Q5.54 14.29 5.57 14.41L5.57 14.41Q5.57 14.62 5.38 14.85Q5.18 15.09 4.84 15.33Q4.49 15.57 4.01 15.80Q3.53 16.03 2.94 16.21L2.94 16.21Q3.08 15.76 3.21 15.33Q3.35 14.90 3.49 14.41L3.49 14.41Q4.26 14.15 4.79 14.15ZM12.00 6.97L11.82 7.17L9.38 16.49Q9.34 16.70 9.34 16.91L9.34 16.91Q9.34 17.28 9.45 17.53Q9.56 17.78 9.76 17.99L9.76 17.99L9.76 17.98Q10.00 18.26 10.20 18.47Q10.40 18.69 10.60 18.85Q10.79 19.01 11.03 19.10Q11.26 19.18 11.56 19.18L11.56 19.18Q11.83 19.18 12.22 19.08L12.22 19.08L12.21 19.10Q13.09 18.90 14.04 18.70Q14.98 18.49 15.88 18.30L15.88 18.30Q16.28 18.21 16.44 18.09Q16.59 17.96 16.59 17.64L16.59 17.64Q16.59 17.28 16.46 16.87Q16.32 16.46 16.16 16.13L16.16 16.13L16.16 16.14Q16.03 15.81 15.80 15.66Q15.57 15.51 15.19 15.51L15.19 15.51Q14.56 15.51 13.99 15.60Q13.43 15.68 12.89 15.78L12.89 15.78Q12.92 15.53 13.03 15.20Q13.15 14.87 13.26 14.59L13.26 14.59Q13.75 14.48 14.25 14.38Q14.76 14.29 15.29 14.18L15.29 14.18L15.27 14.18Q15.64 14.13 15.98 14.08Q16.32 14.03 16.58 13.94Q16.84 13.86 17.00 13.71Q17.16 13.57 17.16 13.33L17.16 13.33Q17.16 13.20 17.11 12.99L17.11 12.99L17.12 13.01Q17.05 12.71 16.98 12.43Q16.91 12.14 16.74 11.82L16.74 11.82L16.74 11.83Q16.59 11.48 16.35 11.35Q16.11 11.23 15.71 11.23L15.71 11.23L15.61 11.23Q14.99 11.24 14.39 11.31L14.39 11.31Q14.59 10.78 14.77 10.24Q14.95 9.70 15.12 9.24L15.12 9.24Q15.99 9.11 16.76 9.02Q17.53 8.93 18.26 8.86L18.26 8.86Q18.72 8.81 18.89 8.65Q19.05 8.50 19.05 8.12L19.05 8.12Q19.05 7.92 19.00 7.74L19.00 7.74L19.01 7.76Q18.97 7.52 18.91 7.31Q18.86 7.10 18.72 6.78L18.72 6.78L18.72 6.79Q18.59 6.43 18.35 6.24Q18.10 6.06 17.65 6.06L17.65 6.06L17.58 6.06Q16.84 6.09 16.09 6.19Q15.33 6.29 14.61 6.41Q13.89 6.54 13.22 6.69Q12.56 6.83 12.00 6.97L12.00 6.97ZM28.48 8.15L28.48 8.15Q28.48 7.95 28.42 7.73Q28.36 7.50 28.27 7.27Q28.17 7.04 28.05 6.83Q27.93 6.62 27.80 6.45L27.80 6.45Q27.64 6.26 27.41 6.15Q27.19 6.05 26.74 6.05L26.74 6.05Q26.00 6.08 25.07 6.15Q24.15 6.22 23.18 6.31Q22.22 6.41 21.29 6.54Q20.36 6.66 19.61 6.80L19.61 6.80Q19.33 6.86 19.19 6.98Q19.04 7.10 19.04 7.36L19.04 7.36Q19.04 7.55 19.10 7.71L19.10 7.71L19.10 7.70L19.14 7.83Q19.22 8.08 19.35 8.39Q19.49 8.69 19.66 8.97Q19.84 9.25 20.07 9.44Q20.30 9.63 20.59 9.63L20.59 9.63Q20.86 9.63 21.15 9.56Q21.45 9.49 21.85 9.42L21.85 9.42Q21.57 10.35 21.27 11.43Q20.97 12.52 20.71 13.59Q20.44 14.66 20.22 15.64Q20.01 16.62 19.88 17.32L19.88 17.32L19.88 17.30Q19.81 17.58 19.81 17.75L19.81 17.75Q19.81 18.28 20.17 18.54Q20.52 18.80 21.08 19.00L21.08 19.00L21.07 19.00Q21.36 19.11 21.66 19.19Q21.95 19.28 22.15 19.28L22.15 19.28Q22.40 19.28 22.57 19.15Q22.74 19.03 22.81 18.70L22.81 18.70L22.79 18.72Q23.09 17.60 23.43 16.35Q23.77 15.11 24.15 13.84Q24.53 12.57 24.91 11.32Q25.28 10.07 25.63 8.93L25.63 8.93Q26.21 8.88 26.73 8.83Q27.26 8.79 27.75 8.72L27.75 8.72Q28.17 8.69 28.32 8.56Q28.48 8.43 28.48 8.15ZM38.86 18.63L38.86 18.63Q39.20 18.87 39.51 18.97Q39.82 19.07 40.08 19.07L40.08 19.07Q40.26 19.07 40.42 19.03Q40.57 19.00 40.74 18.96L40.74 18.96L40.73 18.97Q40.84 18.96 41.04 18.88Q41.24 18.80 41.45 18.68Q41.65 18.56 41.80 18.39Q41.94 18.21 41.94 18.00L41.94 18.00Q41.94 17.70 41.64 17.40L41.64 17.40L41.64 17.42Q41.34 17.12 41.01 16.75Q40.67 16.38 40.33 15.97Q39.98 15.57 39.66 15.16Q39.33 14.74 39.05 14.36L39.05 14.36Q40.53 13.64 41.60 12.82Q42.67 12.00 43.16 11.03L43.16 11.03L43.16 11.05Q43.27 10.81 43.34 10.56Q43.40 10.32 43.40 10.01L43.40 10.01Q43.40 9.48 43.27 9.02Q43.15 8.55 42.95 8.16Q42.74 7.77 42.50 7.44Q42.25 7.11 42.01 6.83L42.01 6.83Q41.62 6.38 41.08 6.20Q40.54 6.02 39.96 6.02L39.96 6.02Q39.45 6.02 38.90 6.13Q38.35 6.24 37.78 6.42Q37.21 6.59 36.65 6.82Q36.09 7.06 35.57 7.29L35.57 7.29Q35.29 7.42 34.99 8.09Q34.68 8.76 34.38 9.73Q34.08 10.70 33.79 11.84Q33.50 12.99 33.26 14.06Q33.01 15.13 32.82 16.02Q32.62 16.91 32.52 17.36L32.52 17.36Q32.48 17.60 32.48 17.79L32.48 17.79Q32.48 18.17 32.62 18.40Q32.76 18.62 33.00 18.75Q33.24 18.89 33.54 18.97Q33.85 19.05 34.19 19.15L34.19 19.15Q34.37 19.21 34.54 19.21L34.54 19.21Q34.82 19.21 34.97 19.07Q35.11 18.93 35.20 18.65L35.20 18.65Q35.41 17.89 35.63 17.15Q35.85 16.41 36.09 15.61L36.09 15.61Q36.41 16.06 36.78 16.49Q37.14 16.93 37.51 17.32Q37.88 17.72 38.23 18.06Q38.58 18.40 38.86 18.63ZM39.77 9.10L39.77 9.10Q40.33 9.10 40.40 9.28L40.40 9.28L40.40 9.30Q40.40 9.51 40.19 9.84Q39.97 10.18 39.57 10.56Q39.17 10.93 38.59 11.31Q38.01 11.69 37.30 12.00L37.30 12.00Q37.32 11.90 37.35 11.82Q37.38 11.73 37.41 11.65L37.41 11.65L37.41 11.66Q37.62 11.05 37.81 10.49Q38.00 9.94 38.19 9.45L38.19 9.45Q38.64 9.25 39.05 9.18Q39.45 9.10 39.77 9.10ZM45.25 6.97L45.07 7.17L42.63 16.49Q42.59 16.70 42.59 16.91L42.59 16.91Q42.59 17.28 42.70 17.53Q42.81 17.78 43.01 17.99L43.01 17.99L43.01 17.98Q43.25 18.26 43.45 18.47Q43.65 18.69 43.85 18.85Q44.04 19.01 44.27 19.10Q44.51 19.18 44.81 19.18L44.81 19.18Q45.08 19.18 45.47 19.08L45.47 19.08L45.46 19.10Q46.34 18.90 47.29 18.70Q48.23 18.49 49.13 18.30L49.13 18.30Q49.53 18.21 49.69 18.09Q49.84 17.96 49.84 17.64L49.84 17.64Q49.84 17.28 49.71 16.87Q49.57 16.46 49.41 16.13L49.41 16.13L49.41 16.14Q49.28 15.81 49.05 15.66Q48.82 15.51 48.44 15.51L48.44 15.51Q47.81 15.51 47.24 15.60Q46.68 15.68 46.14 15.78L46.14 15.78Q46.17 15.53 46.28 15.20Q46.40 14.87 46.51 14.59L46.51 14.59Q47.00 14.48 47.50 14.38Q48.01 14.29 48.54 14.18L48.54 14.18L48.52 14.18Q48.89 14.13 49.23 14.08Q49.57 14.03 49.83 13.94Q50.09 13.86 50.25 13.71Q50.41 13.57 50.41 13.33L50.41 13.33Q50.41 13.20 50.36 12.99L50.36 12.99L50.37 13.01Q50.30 12.71 50.23 12.43Q50.16 12.14 49.99 11.82L49.99 11.82L49.99 11.83Q49.84 11.48 49.60 11.35Q49.36 11.23 48.96 11.23L48.96 11.23L48.86 11.23Q48.24 11.24 47.64 11.31L47.64 11.31Q47.84 10.78 48.02 10.24Q48.20 9.70 48.37 9.24L48.37 9.24Q49.24 9.11 50.01 9.02Q50.78 8.93 51.51 8.86L51.51 8.86Q51.97 8.81 52.14 8.65Q52.30 8.50 52.30 8.12L52.30 8.12Q52.30 7.92 52.25 7.74L52.25 7.74L52.26 7.76Q52.22 7.52 52.16 7.31Q52.11 7.10 51.97 6.78L51.97 6.78L51.97 6.79Q51.84 6.43 51.60 6.24Q51.35 6.06 50.90 6.06L50.90 6.06L50.83 6.06Q50.09 6.09 49.34 6.19Q48.58 6.29 47.86 6.41Q47.14 6.54 46.47 6.69Q45.81 6.83 45.25 6.97L45.25 6.97ZM57.41 17.88L57.41 17.88Q57.44 18.44 57.60 18.67Q57.76 18.90 58.20 19.04L58.20 19.04L58.18 19.03Q58.55 19.18 58.88 19.21Q59.22 19.24 59.61 19.24L59.61 19.24Q60.13 19.24 60.30 19.07Q60.47 18.90 60.47 18.45L60.47 18.45Q60.51 17.11 60.56 15.62Q60.62 14.13 60.70 12.70Q60.77 11.27 60.87 10.00Q60.96 8.72 61.07 7.80L61.07 7.80L61.07 7.81Q61.08 7.74 61.08 7.67L61.08 7.67Q61.08 7.59 61.08 7.52L61.08 7.52Q61.08 7.15 60.93 6.92Q60.77 6.69 60.34 6.54L60.34 6.54L60.09 6.47Q59.60 6.30 58.95 6.14Q58.30 5.98 57.33 5.98L57.33 5.98Q56.76 5.98 56.43 6.22Q56.10 6.47 55.86 6.83L55.86 6.83Q55.23 7.81 54.48 9.13Q53.73 10.44 52.98 11.84Q52.23 13.24 51.56 14.59Q50.88 15.95 50.40 17.01L50.40 17.01Q50.30 17.25 50.27 17.43Q50.23 17.61 50.23 17.77L50.23 17.77Q50.23 17.99 50.34 18.16Q50.46 18.34 50.63 18.49Q50.81 18.63 51.03 18.76Q51.25 18.89 51.48 19.00L51.48 19.00L51.65 19.08Q51.91 19.19 52.14 19.19L52.14 19.19Q52.39 19.19 52.60 18.94Q52.81 18.69 53.02 18.30Q53.23 17.92 53.43 17.46Q53.63 17.01 53.86 16.62L53.86 16.62Q54.56 16.44 55.48 16.29Q56.39 16.14 57.34 16.00L57.34 16.00L57.37 16.28Q57.37 17.19 57.41 17.88ZM57.58 9.93L57.58 9.93Q57.53 10.68 57.48 11.47Q57.44 12.25 57.40 13.05L57.40 13.05Q56.97 13.08 56.55 13.12Q56.13 13.16 55.69 13.23L55.69 13.23Q56.18 12.33 56.67 11.50Q57.15 10.67 57.58 9.93ZM67.10 18.28L67.12 18.27Q67.52 18.16 67.68 18.05Q67.83 17.93 67.83 17.68L67.83 17.68Q67.83 17.37 67.71 16.92Q67.59 16.46 67.37 16.10L67.37 16.10L67.38 16.11Q67.21 15.78 67.00 15.64Q66.78 15.50 66.43 15.50L66.43 15.50Q65.81 15.50 65.30 15.58Q64.79 15.67 64.26 15.75L64.26 15.75Q64.55 14.76 64.88 13.71Q65.20 12.67 65.52 11.66Q65.84 10.65 66.16 9.74Q66.49 8.82 66.77 8.06L66.77 8.06L66.75 8.08Q66.82 7.92 66.85 7.82Q66.88 7.71 66.88 7.60L66.88 7.60Q66.88 7.35 66.61 7.08Q66.33 6.80 65.94 6.57Q65.55 6.33 65.11 6.17Q64.67 6.02 64.33 6.02L64.33 6.02Q63.83 6.02 63.55 6.65L63.55 6.65Q63.31 7.31 63.04 8.13Q62.76 8.95 62.49 9.85Q62.22 10.75 61.95 11.70Q61.68 12.64 61.45 13.52Q61.22 14.41 61.04 15.19Q60.86 15.97 60.75 16.58L60.75 16.58L60.76 16.55Q60.72 16.69 60.70 16.79Q60.69 16.90 60.69 17.00L60.69 17.00Q60.69 17.32 60.80 17.56Q60.91 17.79 61.11 17.99L61.11 17.99L61.39 18.27L61.38 18.27Q61.54 18.45 61.68 18.59Q61.82 18.72 61.98 18.86L61.98 18.86L61.98 18.84Q62.13 18.98 62.31 19.08Q62.50 19.18 62.82 19.18L62.82 19.18Q62.97 19.18 63.15 19.16Q63.32 19.14 63.53 19.07L63.53 19.07L63.52 19.07Q64.36 18.86 65.29 18.68Q66.22 18.49 67.10 18.28L67.10 18.28ZM76.37 6.97L76.19 7.17L73.75 16.49Q73.71 16.70 73.71 16.91L73.71 16.91Q73.71 17.28 73.82 17.53Q73.93 17.78 74.13 17.99L74.13 17.99L74.13 17.98Q74.37 18.26 74.57 18.47Q74.77 18.69 74.97 18.85Q75.17 19.01 75.40 19.10Q75.63 19.18 75.94 19.18L75.94 19.18Q76.20 19.18 76.59 19.08L76.59 19.08L76.58 19.10Q77.46 18.90 78.41 18.70Q79.35 18.49 80.25 18.30L80.25 18.30Q80.65 18.21 80.81 18.09Q80.96 17.96 80.96 17.64L80.96 17.64Q80.96 17.28 80.83 16.87Q80.70 16.46 80.53 16.13L80.53 16.13L80.53 16.14Q80.40 15.81 80.17 15.66Q79.94 15.51 79.56 15.51L79.56 15.51Q78.93 15.51 78.37 15.60Q77.80 15.68 77.27 15.78L77.27 15.78Q77.29 15.53 77.41 15.20Q77.52 14.87 77.63 14.59L77.63 14.59Q78.12 14.48 78.62 14.38Q79.13 14.29 79.66 14.18L79.66 14.18L79.65 14.18Q80.01 14.13 80.35 14.08Q80.70 14.03 80.96 13.94Q81.21 13.86 81.38 13.71Q81.54 13.57 81.54 13.33L81.54 13.33Q81.54 13.20 81.48 12.99L81.48 12.99L81.49 13.01Q81.42 12.71 81.35 12.43Q81.28 12.14 81.12 11.82L81.12 11.82L81.12 11.83Q80.96 11.48 80.72 11.35Q80.49 11.23 80.08 11.23L80.08 11.23L79.98 11.23Q79.37 11.24 78.76 11.31L78.76 11.31Q78.96 10.78 79.14 10.24Q79.32 9.70 79.49 9.24L79.49 9.24Q80.36 9.11 81.13 9.02Q81.90 8.93 82.63 8.86L82.63 8.86Q83.09 8.81 83.26 8.65Q83.43 8.50 83.43 8.12L83.43 8.12Q83.43 7.92 83.37 7.74L83.37 7.74L83.38 7.76Q83.34 7.52 83.29 7.31Q83.23 7.10 83.09 6.78L83.09 6.78L83.09 6.79Q82.96 6.43 82.72 6.24Q82.47 6.06 82.03 6.06L82.03 6.06L81.96 6.06Q81.21 6.09 80.46 6.19Q79.70 6.29 78.98 6.41Q78.26 6.54 77.60 6.69Q76.93 6.83 76.37 6.97L76.37 6.97ZM81.79 15.23L81.76 15.25Q81.34 15.48 81.31 15.93L81.31 15.93L81.31 15.96Q81.31 16.35 81.90 17.00L81.90 17.00Q82.89 18.21 83.93 18.74Q84.97 19.26 86.11 19.26L86.11 19.26L86.30 19.26Q87.21 19.25 87.87 19.00Q88.54 18.75 89.01 18.39Q89.47 18.03 89.76 17.62Q90.05 17.21 90.22 16.84L90.22 16.84L90.22 16.86Q90.43 16.44 90.43 16.03L90.43 16.03Q90.43 15.43 90.04 14.95Q89.66 14.46 89.10 14.01Q88.55 13.57 87.92 13.11Q87.29 12.66 86.79 12.11L86.79 12.11L86.79 12.12Q86.52 11.82 86.52 11.38L86.52 11.38Q86.52 10.99 86.70 10.58Q86.88 10.16 87.16 9.81Q87.43 9.45 87.74 9.17Q88.05 8.89 88.30 8.76L88.30 8.76Q88.31 8.75 88.31 8.75L88.31 8.75Q88.33 8.75 88.34 8.74L88.34 8.74Q88.31 8.97 88.22 9.32Q88.13 9.66 88.03 10.00Q87.93 10.33 87.86 10.62Q87.78 10.91 87.78 11.05L87.78 11.05Q87.78 12.25 89.53 12.91L89.53 12.91L89.52 12.89Q89.78 13.01 89.98 13.01L89.98 13.01Q90.22 13.01 90.37 12.87Q90.52 12.74 90.68 12.50L90.68 12.50Q90.85 12.18 91.01 11.73Q91.18 11.28 91.33 10.81Q91.48 10.35 91.58 9.88Q91.69 9.42 91.74 9.09L91.74 9.09L91.74 8.74Q91.74 8.34 91.63 7.90Q91.52 7.45 91.08 7.01L91.08 7.01Q90.80 6.73 90.41 6.48Q90.02 6.23 89.59 6.05Q89.17 5.87 88.75 5.76Q88.34 5.66 88.00 5.66L88.00 5.66Q87.51 5.66 87.10 5.79Q86.69 5.92 86.44 6.12L86.44 6.12L86.46 6.10Q85.97 6.38 85.46 6.82Q84.95 7.25 84.51 7.75Q84.07 8.25 83.73 8.79Q83.38 9.32 83.22 9.81L83.22 9.81L83.23 9.80Q82.88 10.63 82.88 11.33L82.88 11.33Q82.88 12.00 83.11 12.54Q83.34 13.08 83.73 13.52Q84.11 13.96 84.60 14.34Q85.09 14.71 85.60 15.09L85.60 15.09Q86.14 15.50 86.55 15.83Q86.95 16.17 86.98 16.34L86.98 16.34Q86.80 16.48 86.48 16.48L86.48 16.48Q86.04 16.48 85.44 16.20Q84.84 15.93 84.10 15.39L84.10 15.39Q83.85 15.19 83.52 15.10Q83.20 15.01 82.84 15.01L82.84 15.01Q82.28 15.01 81.79 15.23L81.79 15.23ZM101.37 8.15L101.37 8.15Q101.37 7.95 101.32 7.73Q101.26 7.50 101.16 7.27Q101.07 7.04 100.95 6.83Q100.83 6.62 100.70 6.45L100.70 6.45Q100.53 6.26 100.31 6.15Q100.09 6.05 99.64 6.05L99.64 6.05Q98.90 6.08 97.97 6.15Q97.05 6.22 96.08 6.31Q95.12 6.41 94.19 6.54Q93.25 6.66 92.51 6.80L92.51 6.80Q92.23 6.86 92.09 6.98Q91.94 7.10 91.94 7.36L91.94 7.36Q91.94 7.55 91.99 7.71L91.99 7.71L91.99 7.70L92.04 7.83Q92.12 8.08 92.25 8.39Q92.39 8.69 92.56 8.97Q92.74 9.25 92.97 9.44Q93.20 9.63 93.49 9.63L93.49 9.63Q93.76 9.63 94.05 9.56Q94.35 9.49 94.75 9.42L94.75 9.42Q94.47 10.35 94.17 11.43Q93.87 12.52 93.60 13.59Q93.34 14.66 93.12 15.64Q92.90 16.62 92.78 17.32L92.78 17.32L92.78 17.30Q92.71 17.58 92.71 17.75L92.71 17.75Q92.71 18.28 93.06 18.54Q93.42 18.80 93.98 19.00L93.98 19.00L93.97 19.00Q94.26 19.11 94.56 19.19Q94.85 19.28 95.05 19.28L95.05 19.28Q95.30 19.28 95.47 19.15Q95.63 19.03 95.70 18.70L95.70 18.70L95.69 18.72Q95.98 17.60 96.33 16.35Q96.67 15.11 97.05 13.84Q97.43 12.57 97.80 11.32Q98.18 10.07 98.53 8.93L98.53 8.93Q99.11 8.88 99.63 8.83Q100.16 8.79 100.65 8.72L100.65 8.72Q101.07 8.69 101.22 8.56Q101.37 8.43 101.37 8.15ZM106.43 17.88L106.43 17.88Q106.46 18.44 106.62 18.67Q106.78 18.90 107.21 19.04L107.21 19.04L107.20 19.03Q107.56 19.18 107.90 19.21Q108.23 19.24 108.63 19.24L108.63 19.24Q109.14 19.24 109.31 19.07Q109.48 18.90 109.48 18.45L109.48 18.45Q109.52 17.11 109.58 15.62Q109.63 14.13 109.71 12.70Q109.79 11.27 109.88 10.00Q109.97 8.72 110.08 7.80L110.08 7.80L110.08 7.81Q110.10 7.74 110.10 7.67L110.10 7.67Q110.10 7.59 110.10 7.52L110.10 7.52Q110.10 7.15 109.94 6.92Q109.79 6.69 109.35 6.54L109.35 6.54L109.10 6.47Q108.61 6.30 107.96 6.14Q107.31 5.98 106.34 5.98L106.34 5.98Q105.77 5.98 105.44 6.22Q105.11 6.47 104.87 6.83L104.87 6.83Q104.24 7.81 103.50 9.13Q102.75 10.44 102.00 11.84Q101.25 13.24 100.57 14.59Q99.89 15.95 99.41 17.01L99.41 17.01Q99.32 17.25 99.28 17.43Q99.25 17.61 99.25 17.77L99.25 17.77Q99.25 17.99 99.36 18.16Q99.47 18.34 99.64 18.49Q99.82 18.63 100.04 18.76Q100.27 18.89 100.49 19.00L100.49 19.00L100.66 19.08Q100.93 19.19 101.15 19.19L101.15 19.19Q101.40 19.19 101.61 18.94Q101.82 18.69 102.03 18.30Q102.24 17.92 102.45 17.46Q102.65 17.01 102.87 16.62L102.87 16.62Q103.57 16.44 104.49 16.29Q105.41 16.14 106.36 16.00L106.36 16.00L106.39 16.28Q106.39 17.19 106.43 17.88ZM106.60 9.93L106.60 9.93Q106.54 10.68 106.50 11.47Q106.46 12.25 106.41 13.05L106.41 13.05Q105.98 13.08 105.56 13.12Q105.14 13.16 104.71 13.23L104.71 13.23Q105.20 12.33 105.68 11.50Q106.16 10.67 106.60 9.93ZM120.93 8.15L120.93 8.15Q120.93 7.95 120.88 7.73Q120.82 7.50 120.72 7.27Q120.62 7.04 120.51 6.83Q120.39 6.62 120.26 6.45L120.26 6.45Q120.09 6.26 119.87 6.15Q119.64 6.05 119.20 6.05L119.20 6.05Q118.45 6.08 117.53 6.15Q116.61 6.22 115.64 6.31Q114.67 6.41 113.74 6.54Q112.81 6.66 112.07 6.80L112.07 6.80Q111.79 6.86 111.64 6.98Q111.50 7.10 111.50 7.36L111.50 7.36Q111.50 7.55 111.55 7.71L111.55 7.71L111.55 7.70L111.59 7.83Q111.68 8.08 111.81 8.39Q111.94 8.69 112.12 8.97Q112.29 9.25 112.53 9.44Q112.76 9.63 113.05 9.63L113.05 9.63Q113.32 9.63 113.61 9.56Q113.90 9.49 114.31 9.42L114.31 9.42Q114.03 10.35 113.73 11.43Q113.43 12.52 113.16 13.59Q112.90 14.66 112.68 15.64Q112.46 16.62 112.34 17.32L112.34 17.32L112.34 17.30Q112.27 17.58 112.27 17.75L112.27 17.75Q112.27 18.28 112.62 18.54Q112.98 18.80 113.54 19.00L113.54 19.00L113.53 19.00Q113.82 19.11 114.11 19.19Q114.41 19.28 114.60 19.28L114.60 19.28Q114.86 19.28 115.02 19.15Q115.19 19.03 115.26 18.70L115.26 18.70L115.25 18.72Q115.54 17.60 115.89 16.35Q116.23 15.11 116.61 13.84Q116.98 12.57 117.36 11.32Q117.74 10.07 118.09 8.93L118.09 8.93Q118.66 8.88 119.19 8.83Q119.71 8.79 120.20 8.72L120.20 8.72Q120.62 8.69 120.78 8.56Q120.93 8.43 120.93 8.15ZM121.97 6.97L121.79 7.17L119.35 16.49Q119.31 16.70 119.31 16.91L119.31 16.91Q119.31 17.28 119.42 17.53Q119.53 17.78 119.73 17.99L119.73 17.99L119.73 17.98Q119.97 18.26 120.17 18.47Q120.37 18.69 120.57 18.85Q120.76 19.01 121.00 19.10Q121.23 19.18 121.53 19.18L121.53 19.18Q121.80 19.18 122.19 19.08L122.19 19.08L122.18 19.10Q123.06 18.90 124.01 18.70Q124.95 18.49 125.85 18.30L125.85 18.30Q126.25 18.21 126.41 18.09Q126.56 17.96 126.56 17.64L126.56 17.64Q126.56 17.28 126.43 16.87Q126.29 16.46 126.13 16.13L126.13 16.13L126.13 16.14Q126.00 15.81 125.77 15.66Q125.54 15.51 125.16 15.51L125.16 15.51Q124.53 15.51 123.96 15.60Q123.40 15.68 122.86 15.78L122.86 15.78Q122.89 15.53 123.00 15.20Q123.12 14.87 123.23 14.59L123.23 14.59Q123.72 14.48 124.22 14.38Q124.73 14.29 125.26 14.18L125.26 14.18L125.24 14.18Q125.61 14.13 125.95 14.08Q126.29 14.03 126.55 13.94Q126.81 13.86 126.97 13.71Q127.13 13.57 127.13 13.33L127.13 13.33Q127.13 13.20 127.08 12.99L127.08 12.99L127.09 13.01Q127.02 12.71 126.95 12.43Q126.88 12.14 126.71 11.82L126.71 11.82L126.71 11.83Q126.56 11.48 126.32 11.35Q126.08 11.23 125.68 11.23L125.68 11.23L125.58 11.23Q124.96 11.24 124.36 11.31L124.36 11.31Q124.56 10.78 124.74 10.24Q124.92 9.70 125.09 9.24L125.09 9.24Q125.96 9.11 126.73 9.02Q127.50 8.93 128.23 8.86L128.23 8.86Q128.69 8.81 128.86 8.65Q129.02 8.50 129.02 8.12L129.02 8.12Q129.02 7.92 128.97 7.74L128.97 7.74L128.98 7.76Q128.94 7.52 128.88 7.31Q128.83 7.10 128.69 6.78L128.69 6.78L128.69 6.79Q128.56 6.43 128.32 6.24Q128.07 6.06 127.62 6.06L127.62 6.06L127.55 6.06Q126.81 6.09 126.06 6.19Q125.30 6.29 124.58 6.41Q123.86 6.54 123.19 6.69Q122.53 6.83 121.97 6.97L121.97 6.97Z"></path></g><!----><g data-v-423bf9ae="" id="082063ed-bb5a-4970-8847-f474d0860741" transform="matrix(1.0868111504448785,0,0,1.0868111504448785,226.74473429518693,-0.23894260335429607)" stroke="none" fill="black"><g clip-rule="evenodd"><path d="M12.983 10.59l17.018 88.223-5.872-59.049 29.021-1.892-.054-9.883L64.549 1 53.622 18.977z"></path><path d="M59.389 54.548l5.16-53.541-8.74 39.716-19.612 1.045 1.57 20.462-7.766 36.583 12.057-39.899z"></path><path d="M62.8 67.182l.549-10.453-15.979 3.755-.032 11.797-17.337 26.532 21.68-27.616zM65.711 62.394l14.841-4.731 1.509-12.532-15.899 2.095zM72.07 44.502l10.988-1.417 1.581-10.278-8.079-.373L64.549 1l8.43 30.967z"></path><path d="M87.413 31.294l1.256-9.506-9.544-2.694L64.549 1l14.483 22.437-.422 7z"></path></g></g><!----></svg>